<?xml version="1.0" encoding="utf-8"?>
<!-- Generator: Adobe Illustrator 24.0.3, SVG Export Plug-In . SVG Version: 6.00 Build 0)  -->
<svg version="1.1" id="Ebene_1" xmlns="http://www.w3.org/2000/svg" xmlns:xlink="http://www.w3.org/1999/xlink" x="0px" y="0px"
	 viewBox="0 0 234.8 125.4" style="enable-background:new 0 0 234.8 125.4;" xml:space="preserve">
<style type="text/css">
	.st0{fill:#7EBB48;}
	.st1{fill:#5091CD;}
	.st2{fill:#F6A543;}
	.st3{fill:#E84628;}
</style>
<g>
	<g>
		<path id="j-green_2_" class="st0" d="M5.5,74.9l0-4.3c0-13.9,7.7-25.6,19-32c-5.4-8.5-4.3-19.8,3.1-27.2c8.5-8.5,22.4-8.5,30.9,0
			c7.7,7.7,8.5,19.6,2.3,28.3c9.5,5.8,16,15.9,17,27.5c0.1,1.1-2.2,5.1-2.2,5.1H55.1v-1.9c0-7.4-6-13.4-13.4-13.4
			c-7.4,0-13.4,6-13.4,13.4l0,51.3H5.4l0-24.1L5.5,74.9z"/>
		<path id="j-green_1_" class="st1" d="M229.4,97.6v24.1h-22.9l0-51.3c0-7.4-6-13.4-13.4-13.4c-7.4,0-13.4,6-13.4,13.4v1.9H161
			c0,0-3.9-6.6-3.4-8.9c2-10,8-18.5,16.5-23.7c-6.2-8.6-5.4-20.5,2.3-28.3c8.5-8.5,22.4-8.5,30.9,0c7.4,7.4,8.5,18.7,3.1,27.2
			c11.3,6.3,19,18.1,19,32l0,4.3L229.4,97.6z"/>
		<path class="st2" d="M91,57L91,57l26.4,0V45.4c-2.1-2.2-4.5-4.1-7.1-5.7c6.2-8.6,5.4-20.5-2.3-28.3c-8.5-8.5-22.4-8.5-30.9,0
			c-7.4,7.4-8.5,18.7-3.1,27.2c-11.3,6.3-19,18.1-19,32v4.3l-0.2,22.7v24.1l22.9,0l0-51.3C77.7,63.1,83.6,57.1,91,57z"/>
		<path class="st3" d="M179.7,74.9v-4.3c0-13.9-7.7-25.6-19-32c5.4-8.5,4.3-19.8-3.1-27.2c-8.5-8.5-22.4-8.5-30.9,0
			c-7.7,7.7-8.5,19.6-2.3,28.3c-2.6,1.6-5,3.5-7.1,5.7V57h26.2v0c0,0,0,0,0,0c7.4,0,13.4,6,13.4,13.4l0,51.3l22.9,0V97.6L179.7,74.9
			z"/>
	</g>
</g>
</svg>
